<svg width="153" height="28" viewBox="0 0 153 28" fill="none" xmlns="http://www.w3.org/2000/svg">
    <path d="M17.8177 27.9999H27.9995L17.8177 17.8181V27.9999Z" fill="black"></path>
    <path d="M28 5.91278e-05L22.0606 5.86086e-05L28 5.93945L28 5.91278e-05Z" fill="#00C6A2"></path>
    <path fill-rule="evenodd" clip-rule="evenodd"
        d="M18.2421 17.8182C18.0998 17.8182 17.9583 17.8145 17.8179 17.8073V11.4337L24.7483 4.99831C25.7256 6.33205 26.3027 7.97745 26.3027 9.75763C26.3027 14.2094 22.6938 17.8182 18.2421 17.8182ZM22.9382 3.20553L17.8179 7.96008V1.70799C17.9583 1.70071 18.0998 1.69702 18.2421 1.69702C19.9942 1.69702 21.6158 2.25607 22.9382 3.20553Z"
        fill="black"></path>
    <path fill-rule="evenodd" clip-rule="evenodd"
        d="M16.9703 1.69702H9.33392V9.23051L12.7604 12.657L16.9703 8.74784V1.69702ZM16.9703 12.2215L12.695 16.1914L9.33392 12.8303V28.0001H16.9703V12.2215Z"
        fill="black"></path>
    <path fill-rule="evenodd" clip-rule="evenodd"
        d="M8.48485 1.69702H0V12.6248L6.36413 6.26065L8.48485 8.38138V1.69702ZM8.48485 11.9812L6.36413 9.86047L0 16.2246V28.0001H8.48485V11.9812Z"
        fill="black"></path>
    <path
        d="M38.0911 20.6666V6.66663H44.1111C45.8311 6.66663 47.1578 7.13329 48.0911 8.06662C48.8111 8.78663 49.1711 9.70663 49.1711 10.8266V10.8666C49.1711 11.9866 48.8244 12.8933 48.1311 13.5866C47.4378 14.28 46.5178 14.7333 45.3711 14.9466L49.6711 20.6666H47.7311L43.6711 15.2266H43.6311H39.6711V20.6666H38.0911ZM39.6711 13.8066H43.9711C45.0378 13.8066 45.9044 13.5466 46.5711 13.0266C47.2378 12.5066 47.5711 11.8066 47.5711 10.9266V10.8866C47.5711 10.02 47.2511 9.34663 46.6111 8.86663C45.9844 8.37329 45.1111 8.12663 43.9911 8.12663H39.6711V13.8066ZM53.0089 16.1266C53.1156 17.18 53.5089 18.02 54.1889 18.6466C54.8822 19.26 55.7022 19.5666 56.6489 19.5666C57.8889 19.5666 58.9756 19.08 59.9089 18.1066L60.8689 18.9666C59.7089 20.26 58.2889 20.9066 56.6089 20.9066C55.1556 20.9066 53.9289 20.4066 52.9289 19.4066C51.9422 18.3933 51.4489 17.0933 51.4489 15.5066C51.4489 14 51.9222 12.7266 52.8689 11.6866C53.8156 10.6333 54.9956 10.1066 56.4089 10.1066C57.8889 10.1066 59.0622 10.6266 59.9289 11.6666C60.7956 12.7066 61.2289 14.0133 61.2289 15.5866C61.2289 15.7866 61.2222 15.9666 61.2089 16.1266H53.0089ZM53.0089 14.8866H59.6689C59.5756 13.8866 59.2422 13.06 58.6689 12.4066C58.1089 11.74 57.3422 11.4066 56.3689 11.4066C55.4889 11.4066 54.7356 11.7333 54.1089 12.3866C53.4822 13.04 53.1156 13.8733 53.0089 14.8866ZM64.5048 20.6666V11.6866H63.0848V10.3466H64.5048V9.44662C64.5048 8.27329 64.8048 7.38663 65.4048 6.78663C65.9382 6.25329 66.6782 5.98663 67.6248 5.98663C68.2782 5.98663 68.8448 6.07329 69.3248 6.24663V7.58663C68.7115 7.41329 68.2115 7.32662 67.8248 7.32662C66.6248 7.32662 66.0248 8.05996 66.0248 9.52663V10.3666H69.3048V11.6866H66.0448V20.6666H64.5048ZM70.1901 20.6666V18.5666H72.0301V20.6666H70.1901Z"
        fill="black"></path>
    <path
        d="M81.8486 20.6666V11.6866H80.4286V10.3466H81.8486V9.44662C81.8486 8.27329 82.1486 7.38663 82.7486 6.78663C83.2819 6.25329 84.0219 5.98663 84.9686 5.98663C85.6219 5.98663 86.1886 6.07329 86.6686 6.24663V7.58663C86.0553 7.41329 85.5553 7.32662 85.1686 7.32662C83.9686 7.32662 83.3686 8.05996 83.3686 9.52663V10.3666H86.6486V11.6866H83.3886V20.6666H81.8486ZM88.6523 8.06662V6.36663H90.4123V8.06662H88.6523ZM88.7523 20.6666V10.3266H90.2923V20.6666H88.7523ZM93.8662 20.6666V10.3266H95.4062V12.1266C96.2196 10.78 97.3996 10.1066 98.9462 10.1066C100.173 10.1066 101.14 10.4866 101.846 11.2466C102.553 11.9933 102.906 12.9933 102.906 14.2466V20.6666H101.366V14.6266C101.366 13.6533 101.113 12.8933 100.606 12.3466C100.113 11.7866 99.4129 11.5066 98.5062 11.5066C97.6129 11.5066 96.8729 11.8066 96.2862 12.4066C95.6996 13.0066 95.4062 13.7866 95.4062 14.7466V20.6666H93.8662ZM109.27 20.8866C108.23 20.8866 107.324 20.6 106.55 20.0266C105.79 19.4533 105.41 18.6666 105.41 17.6666V17.6266C105.41 16.5466 105.81 15.7133 106.61 15.1266C107.41 14.54 108.484 14.2466 109.83 14.2466C110.897 14.2466 111.95 14.3933 112.99 14.6866V14.3666C112.99 13.46 112.724 12.7666 112.19 12.2866C111.657 11.8066 110.904 11.5666 109.93 11.5666C108.917 11.5666 107.87 11.8133 106.79 12.3066L106.33 11.0466C107.61 10.46 108.864 10.1666 110.09 10.1666C111.557 10.1666 112.67 10.5466 113.43 11.3066C114.15 12.0266 114.51 13.04 114.51 14.3466V20.6666H112.99V19.1266C112.07 20.3 110.83 20.8866 109.27 20.8866ZM109.57 19.6466C110.53 19.6466 111.344 19.3866 112.01 18.8666C112.677 18.3466 113.01 17.68 113.01 16.8666V15.9066C111.997 15.6133 110.99 15.4666 109.99 15.4666C109.044 15.4666 108.304 15.66 107.77 16.0466C107.237 16.42 106.97 16.92 106.97 17.5466V17.5866C106.97 18.2133 107.217 18.7133 107.71 19.0866C108.217 19.46 108.837 19.6466 109.57 19.6466ZM117.772 20.6666V10.3266H119.312V12.1266C120.126 10.78 121.306 10.1066 122.852 10.1066C124.079 10.1066 125.046 10.4866 125.752 11.2466C126.459 11.9933 126.812 12.9933 126.812 14.2466V20.6666H125.272V14.6266C125.272 13.6533 125.019 12.8933 124.512 12.3466C124.019 11.7866 123.319 11.5066 122.412 11.5066C121.519 11.5066 120.779 11.8066 120.192 12.4066C119.606 13.0066 119.312 13.7866 119.312 14.7466V20.6666H117.772ZM134.757 20.9066C133.263 20.9066 132.003 20.38 130.977 19.3266C129.963 18.2733 129.457 17.0133 129.457 15.5466V15.5066C129.457 14.0266 129.963 12.76 130.977 11.7066C132.003 10.64 133.263 10.1066 134.757 10.1066C136.357 10.1066 137.737 10.72 138.897 11.9466L137.877 13.0266C136.89 11.9866 135.843 11.4666 134.737 11.4666C133.697 11.4666 132.817 11.8533 132.097 12.6266C131.39 13.4 131.037 14.3466 131.037 15.4666V15.5066C131.037 16.6266 131.397 17.58 132.117 18.3666C132.85 19.14 133.757 19.5266 134.837 19.5266C135.983 19.5266 137.037 19.0133 137.997 17.9866L138.977 18.9066C137.777 20.24 136.37 20.9066 134.757 20.9066ZM142.15 16.1266C142.256 17.18 142.65 18.02 143.33 18.6466C144.023 19.26 144.843 19.5666 145.79 19.5666C147.03 19.5666 148.116 19.08 149.05 18.1066L150.01 18.9666C148.85 20.26 147.43 20.9066 145.75 20.9066C144.296 20.9066 143.07 20.4066 142.07 19.4066C141.083 18.3933 140.59 17.0933 140.59 15.5066C140.59 14 141.063 12.7266 142.01 11.6866C142.956 10.6333 144.136 10.1066 145.55 10.1066C147.03 10.1066 148.203 10.6266 149.07 11.6666C149.936 12.7066 150.37 14.0133 150.37 15.5866C150.37 15.7866 150.363 15.9666 150.35 16.1266H142.15ZM142.15 14.8866H148.81C148.716 13.8866 148.383 13.06 147.81 12.4066C147.25 11.74 146.483 11.4066 145.51 11.4066C144.63 11.4066 143.876 11.7333 143.25 12.3866C142.623 13.04 142.256 13.8733 142.15 14.8866Z"
        fill="#00C6A2"></path>
</svg>